<svg xmlns="http://www.w3.org/2000/svg" x="217" y="200" viewBox="0 0 217 200">
	<defs>
		<linearGradient id="gradient" x1="0%" y1="0%" x2="0%" y2="100%">
			<stop offset="0%" stop-color="#5CC6D0" />
			<stop offset="50%" stop-color="#A53692" />
			<stop offset="100%" stop-color="#F06277" />
		</linearGradient>
	</defs>
	<path fill="url(#gradient)" d="M49.9995,157.8871h68.6963c0.2509-1.4671,0.4409-2.8283,0.5764-4.0789H58.2225c-2.3047,0-4.1738-1.8692-4.1738-4.1739
	v-20.8652c0-2.3047,1.8691-4.1719,4.1738-4.1719h23.9149c-1.3865-0.7585-2.7109-1.5713-3.9358-2.4668
	c-8.4395-6.1035-11.2949-14.168-12.1299-17.3516c-0.5594-2.049-0.8826-4.1228-0.9716-6.056
	c-0.0118-0.1867-0.0175-0.3735-0.0225-0.561c-0.0029-0.1378-0.0165-0.2822-0.0167-0.4182
	c-0.0002-0.1788,0.0124-0.3593,0.0186-0.5391c0.0043-0.1219,0.0054-0.2433,0.0126-0.3654
	c0.0264-0.4556,0.0706-0.9109,0.1367-1.3636c0.0024-0.0165,0.0025-0.0328,0.0049-0.0493c0.0087-0.0583,0.0246-0.1142,0.0339-0.1723
	c0.0578-0.3596,0.1277-0.7147,0.2099-1.0659c0.0259-0.11,0.0537-0.2189,0.0819-0.328c0.035-0.1357,0.0634-0.2748,0.102-0.4084
	c0.019-0.0668,0.0435-0.1387,0.0656-0.2085c-2.3384-2.1571-3.7308-5.303-3.5342-8.7185c0.2142-3.7173,0.5463-7.1516,0.9752-10.3271
	H48.4139c-1.698,0-3.2963,0.4145-4.7133,1.1343c3.9243,4.6223,6.299,10.5993,6.299,17.1235V157.8871z" />
	<path fill="url(#gradient)" d="M170.0259,80.4291c0.9373-1.8323,2.0786-3.5433,3.399-5.0989c-1.4158-0.7186-3.0126-1.1324-4.7092-1.1324h-0.7915
	c1.2675,3.2551,1.9101,5.4702,2.009,5.8222C169.9714,80.1561,169.9932,80.2927,170.0259,80.4291z" />
	<path fill="url(#gradient)" d="M145.7648,124.5973h13.655c2.3037,0,4.1728,1.8672,4.1728,4.1719v20.8652c0,2.3047-1.8691,4.1739-4.1728,4.1739h-9.0333
	c-0.0916,1.3415-0.2208,2.7025-0.379,4.0789h17.1201V90.7578c-0.0276,0.0276-0.0572,0.0532-0.0851,0.0806
	c-0.0444,0.0438-0.0907,0.0854-0.1359,0.1285c-0.1915,0.1816-0.389,0.3558-0.5927,0.5229
	c-0.0648,0.0533-0.1285,0.1075-0.1946,0.1594c-0.2502,0.1959-0.5063,0.3838-0.7723,0.5572
	c-0.0449,0.0293-0.0928,0.0547-0.1381,0.0834c-0.2281,0.144-0.4615,0.2791-0.6998,0.4061
	c-0.0922,0.0491-0.1855,0.096-0.2794,0.1426c-0.2342,0.1164-0.4724,0.2243-0.7149,0.324
	c-0.0617,0.0253-0.1213,0.0535-0.1837,0.0777c-0.3127,0.1219-0.6319,0.2281-0.9562,0.3213
	c-0.0214,0.0062-0.0413,0.0151-0.0629,0.0211c-0.0283,0.0079-0.0576,0.0102-0.0859,0.0179
	c-0.4462,0.1215-0.9007,0.2188-1.3641,0.2836c-0.0305,0.0043-0.0612,0.0062-0.0917,0.0102
	c-0.4716,0.0619-0.9494,0.0987-1.4335,0.0987c-0.0074,0-0.0146-0.0012-0.022-0.0012c-0.3378-0.0007-0.6721-0.0202-1.0038-0.0516
	c-0.1256-0.0117-0.2498-0.0311-0.3746-0.0471c-0.2136-0.0277-0.4257-0.0594-0.6357-0.0994
	c-0.1439-0.0273-0.2869-0.0576-0.4296-0.0906c-0.1953-0.0454-0.3879-0.0978-0.5797-0.1536
	c-0.1398-0.0406-0.28-0.0784-0.4185-0.1247c-0.2398-0.0803-0.4747-0.1719-0.7075-0.2681c-0.0786-0.0323-0.1595-0.0558-0.2377-0.09
	l-10.8671-4.7587l-1.4862,3.1123c7.5062,2.0086,12.4916,9.3916,11.3186,17.2544c-0.8513,5.6946-4.8248,10.3254-9.9991,12.2484
	c0.4597,0.8028,0.9029,1.6136,1.3087,2.4401C145.4023,123.7661,145.5761,124.1867,145.7648,124.5973z" />
	<path fill="url(#gradient)"
		d="M35.6229,184.7049v5.0963h12.5957v-5.0488H36.5659C36.2504,184.7524,35.9367,184.7275,35.6229,184.7049z" />
	<path fill="url(#gradient)"
		d="M168.9111,184.7524v5.0488h12.5957v-5.0964c-0.3146,0.0227-0.6292,0.0476-0.9456,0.0476H168.9111z" />
	<path fill="url(#gradient)" d="M23.5,115.9559c0.8911,0,1.769-0.0542,2.6348-0.1508l-0.002,55.5137c0,2.75,1.1133,5.4355,3.0566,7.3789
	c1.9434,1.9414,4.6309,3.0547,7.377,3.0547h74.9534c3.3981-8.396,5.4306-15.3011,6.6013-20.8652H47V92.4555
	C46.9995,79.477,36.4785,68.9559,23.5,68.9559c-12.979,0-23.5,10.5214-23.5,23.5S10.521,115.9559,23.5,115.9559z" />
	<path fill="url(#gradient)" d="M170.1281,92.4555v68.4316h-20.512c-0.9613,6.5297-2.6461,13.4569-5.0814,20.8652h36.027
	c2.7461,0,5.4355-1.1133,7.375-3.0547c1.9434-1.9434,3.0547-4.6328,3.0547-7.3789v-55.5144
	c0.8672,0.0969,1.7476,0.1515,2.6406,0.1515c12.9785,0,23.5-10.5214,23.5-23.5s-10.5215-23.5-23.5-23.5s-23.5,10.5212-23.5,23.4996
	H170.1281z" />
	<path fill="url(#gradient)" d="M132.1329,39.4958c-4.5252,4.7992-10.934,7.8038-18.0352,7.8038c-7.6448,0-14.4907-3.4788-19.0435-8.9344h-6.274
	c-0.2947,0-0.5847,0.0201-0.8708,0.0522c-0.7979-0.0056-1.6101,0.1077-2.4131,0.3553
	c-3.0024,0.9248-18.0938,7.4854-20.3081,45.9243c-0.1205,2.093,0.5818,4.0388,1.8174,5.5389
	c2.6744-4.8019,7.8168-8.0206,13.5399-8.0206c0.7676,0,1.5439,0.0586,2.3086,0.1729l23.5617,3.5206l-0.3254,0.5998l3.2021,2.8629
	l-26.8831-4.0168c-6.8282-1.0214-13.1895,3.6875-14.209,10.5157c-1.0215,6.826,3.6875,13.1894,10.5156,14.209l57.999,8.6679
	c0.625,0.0928,1.2471,0.1387,1.8613,0.1387c6.086,0,11.4219-4.4512,12.3497-10.6543c1.0185-6.8281-3.6895-13.1895-10.5176-14.2109
	l-3.4482-0.5152l-27.6265-0.0436l2.6095-4.949l-2.8292-2.5298l17.85-32.9041c1.3894-0.4599,7.3738-1.8829,19.702,2.2534
	l1.7156,0.5751l-0.132-1.8037c-0.069-0.9419,1.5978-3.3258,3.3326-5.1763c0.8315,0.1585,2.381,0.4851,3.798,0.9566l-4.338,8.5168
	l-19.9339-1.075l-3.2136,6.0947c1.706-1.2075,3.7712-1.8993,5.9503-1.8993c1.4258,0,2.8145,0.292,4.1289,0.8682l13.0641,5.7208
	l9.7665-20.4509l-2.5043-0.4913l-0.9317-0.1827l-0.4548,0.8934c-2.4186-0.9261-5.4237-1.4153-5.5615-1.4376l-0.6091-0.0972
	l-0.4347,0.4373c-0.0032,0.0032-0.0099,0.0102-0.0132,0.0135c-0.322,0.3246-1.1313,1.1644-1.9761,2.2296
	C143.8606,44.827,138.5004,41.3483,132.1329,39.4958z" />
	<path fill="url(#gradient)" d="M113.9941,183.6456c-2.6172,6.3867,0.4404,13.6875,6.8291,16.3047c1.5508,0.6348,3.1563,0.9355,4.7334,0.9355
	c4.9238,0,9.5898-2.9277,11.5723-7.7656c7.3389-17.9473,10.4395-32.4844,10.4521-44.7129
	c0.0127-9.2949-1.8711-17.2656-5.0703-23.7227c-0.5144-1.0468-1.0693-2.032-1.6423-2.9868
	c-0.7517,0.1147-1.515,0.1885-2.2928,0.1885c-0.7617,0-1.5352-0.0576-2.3008-0.1709l-58.002-8.6689
	c-2.449-0.3656-4.7181-1.2993-6.6793-2.6943c1.8072,3.1945,4.499,6.5507,8.378,9.3559c2.6328,1.9238,5.6895,3.5195,9.1582,4.75
	c0.0586,0.0195,0.1172,0.043,0.1777,0.0605c5.1826,1.8125,11.2852,2.8066,18.3291,2.8066c0.0508,0,0.0996,0,0.1504,0
	c0.6719,0,1.3594-0.0117,2.0557-0.0293c1.2686,0.3535,3.9717,1.3027,6.2266,3.2598c1.5635,1.3281,3.0391,3.0391,4.2764,5.7246
	c1.2178,2.6914,2.2275,6.4746,2.2354,12.127C122.5966,156.2902,120.4863,167.8214,113.9941,183.6456z" />
	<path fill="url(#gradient)" d="M113.3204,91.0616l26.7371,0.0416l2.0984-4.3939l-12.4466-5.4501c-3.9057-1.7109-6.2193-5.5677-6.1661-9.5855
	L113.3204,91.0616z" />
	<path fill="url(#gradient)" d="M130.6321,79.1522l25.5,11.1665c0.1787,0.0783,0.3602,0.1399,0.5412,0.2042c0.0585,0.0208,0.1147,0.0461,0.1737,0.0656
	c0.361,0.119,0.7252,0.2063,1.0909,0.2717c0.0811,0.0145,0.1621,0.0256,0.2438,0.0376c0.3855,0.0566,0.7714,0.0948,1.1555,0.0948
	c0.0001,0,0.0001,0,0.0002,0s0.0001,0,0.0001,0c0.368,0,0.7392-0.0279,1.1113-0.0803c0.1519-0.0214,0.2988-0.0632,0.449-0.0932
	c0.2014-0.0401,0.4027-0.069,0.6038-0.1253c0.0197-0.0055,0.0378-0.0136,0.0574-0.0193c0.0542-0.0157,0.1063-0.037,0.1602-0.0538
	c0.2831-0.0881,0.5571-0.1913,0.8232-0.3073c0.0762-0.0333,0.1516-0.067,0.2267-0.1026c0.3072-0.1455,0.6057-0.3033,0.887-0.4834
	c0.0038-0.0024,0.0078-0.0043,0.0115-0.0067c0.2911-0.1871,0.5633-0.3959,0.8245-0.6163c0.0657-0.0553,0.1292-0.1127,0.1932-0.1703
	c0.2234-0.2013,0.4361-0.4122,0.6343-0.636c0.0334-0.0375,0.0697-0.0714,0.1024-0.1096c0.2202-0.2581,0.418-0.5327,0.6032-0.8156
	c0.0491-0.0751,0.0963-0.1512,0.1431-0.2285c0.1843-0.3031,0.3549-0.6143,0.4977-0.9393c0.0009-0.002,0.0021-0.0037,0.003-0.0056
	c0.0158-0.0361,0.0262-0.0731,0.0414-0.1093c0.0868-0.2059,0.1682-0.4142,0.2377-0.6271c0.0294-0.0901,0.05-0.1812,0.076-0.2717
	c0.0464-0.1612,0.0938-0.3218,0.1299-0.4861c0.0246-0.1116,0.0399-0.2236,0.0596-0.3354c0.0256-0.1453,0.0534-0.2897,0.0709-0.4368
	c0.0145-0.1216,0.0195-0.2428,0.0283-0.3643c0.0101-0.1386,0.0231-0.2766,0.0258-0.4163c0.0026-0.13-0.0046-0.259-0.0084-0.3885
	c-0.0038-0.1313-0.0039-0.262-0.0143-0.3939c-0.0114-0.1446-0.0336-0.2872-0.0527-0.4305
	c-0.0156-0.1164-0.0259-0.2324-0.0467-0.3489c-0.0313-0.1754-0.075-0.3477-0.1179-0.5202c-0.0198-0.08-0.032-0.16-0.0544-0.2399
	c-0.2162-0.7703-3.0601-10.6009-9.5546-20.6442l-4.2455,8.8903l4.2723,1.8708l-0.7639,2.1765l-19.7028-8.6279
	c-4.0449-1.7734-8.7656,0.0708-10.5371,4.1191C124.7405,72.6625,126.5853,77.3798,130.6321,79.1522z" />
	<path fill="url(#gradient)" d="M109.77,19.6513c3.3442-0.2975,6.3727,1.5802,7.7098,4.4593l4.1649-0.3705c0.8078-3.0699,3.4573-5.4529,6.8015-5.7504
	c3.3442-0.2975,6.3728,1.5802,7.7098,4.4593l0.4393-0.0391C136.5465,10.0248,126.4951,0,114.0976,0
	c-12.4258,0-22.5,10.0732-22.5,22.5c0,1.325,0.1211,2.6209,0.3408,3.8831l11.0301-0.9814
	C103.7763,22.3318,106.4258,19.9489,109.77,19.6513z" />
	<path fill="url(#gradient)" d="M114.0976,45c9.5249,0,17.6602-5.9202,20.9437-14.2789c-1.2715,1.4991-3.1087,2.5196-5.2214,2.7076
	c-4.2635,0.3793-8.027-2.7692-8.4063-7.0327c-0.0075-0.084-0.0048-0.1664-0.0096-0.2501l-3.2624,0.2902
	c0.0101,0.0832,0.0272,0.1639,0.0347,0.2479c0.3793,4.2634-2.7692,8.027-7.0327,8.4063c-4.2634,0.3793-8.027-2.7692-8.4063-7.0327
	c-0.0075-0.084-0.0048-0.1665-0.0096-0.2501l-10.2524,0.9122C95.1747,38.1197,103.8302,45,114.0976,45z" />
	<ellipse fill="url(#gradient)" transform="matrix(0.6417 -0.767 0.767 0.6417 26.5546 108.256)" cx="129.1331"
		cy="25.7092" rx="5.875" ry="5.875" />
	<circle fill="url(#gradient)" cx="110.4568" cy="27.3708" r="5.875" />
</svg>