<svg xmlns="http://www.w3.org/2000/svg" width="512" height="512" viewBox="0 0 512 512">
    <defs>
        <linearGradient id="gradient" x1="0%" y1="0%" x2="0%" y2="100%">
            <stop offset="0%" stop-color="#5CC6D0" />
            <stop offset="50%" stop-color="#A53692" />
            <stop offset="100%" stop-color="#F06277" />
        </linearGradient>
    </defs>
    <path fill="url(#gradient)"
        d="M302 295c-5,0 -10,-2 -11,-7 -3,-10 21,-32 32,-48 -29,-22 -46,-57 -46,-93 0,-65 53,-118 118,-118 64,0 117,53 117,118 0,64 -53,117 -117,117 -13,0 -72,31 -93,31zm-228 188l-66 0c-5,0 -8,-4 -8,-8l0 -161c0,-4 3,-7 8,-7l67 0c2,0 5,1 7,2 5,-5 12,-9 23,-13 19,-7 44,-49 52,-64l7 -16c18,-39 52,-33 53,2 1,29 -12,52 -12,84 0,2 1,3 1,3l72 0c24,0 37,30 19,47 -1,1 -2,2 -4,3 14,15 7,35 -5,41 10,12 8,32 -7,40 12,14 7,47 -20,47l-152 0c-10,0 -17,-3 -21,-7 -4,4 -8,7 -14,7zm17 -162c1,4 0,117 0,132 0,4 2,15 19,15l151 0c17,0 17,-26 0,-26l-69 0c-10,0 -10,-15 0,-15l69 0c30,0 20,-26 6,-26 -23,0 -46,0 -69,0 -10,0 -10,-15 0,-15l69 0c30,0 21,-26 7,-26 -23,0 -46,0 -70,0 -9,0 -9,-15 0,-15 17,0 57,-2 71,0 22,1 20,-26 3,-26l-73 0c-6,0 -14,-5 -14,-17 0,-32 13,-59 12,-84 0,-22 -16,-17 -26,4l-7 16c-3,7 -32,61 -60,72 -13,5 -18,9 -19,11zm-46 58c-12,0 -22,-10 -22,-23 0,-12 10,-22 22,-22 13,0 23,10 23,22 0,13 -10,23 -23,23zm0 -31c-10,0 -11,16 0,16 12,0 11,-16 0,-16zm-30 120l59 0c4,0 2,-7 2,-15l0 -129c0,-2 -1,-2 -2,-2l-59 0 0 146zm440 -280l-122 0c-9,0 -9,-15 0,-15l122 0c10,0 10,15 0,15zm0 -31l-122 0c-9,0 -9,-15 0,-15l122 0c10,0 10,15 0,15zm0 -31l-122 0c-9,0 -9,-15 0,-15l122 0c10,0 10,15 0,15zm0 -31l-122 0c-9,0 -9,-15 0,-15l122 0c10,0 10,15 0,15zm-60 -51c-57,0 -103,46 -103,103 0,33 16,65 43,84 14,8 -11,31 -24,48 22,-6 70,-29 84,-29 57,0 103,-47 103,-103 0,-57 -47,-103 -103,-103zm-68 199l0 0z" />
</svg>