<?xml version="1.0" encoding="UTF-8" standalone="no"?> <svg xmlns="http://www.w3.org/2000/svg" xmlns:xlink="http://www.w3.org/1999/xlink" viewBox="0 0 64 64"><defs><style>.cls-1{fill:url(#linear-gradient);}.cls-2{fill:url(#linear-gradient-2);}</style><linearGradient id="linear-gradient" x1="30" y1="32" x2="61.94" y2="32" gradientUnits="userSpaceOnUse"><stop offset="0" stop-color="#17a6d7"/><stop offset="1" stop-color="#9d31fe"/></linearGradient><linearGradient id="linear-gradient-2" x1="2" y1="32.01" x2="49.08" y2="32.01" xlink:href="#linear-gradient"/></defs><g id="Layer_42" data-name="Layer 42"><path class="cls-1" d="M53.22,10.79a2,2,0,0,0-2.84,0L30.59,30.59a2,2,0,0,0,0,2.82l19.79,19.8a2,2,0,0,0,2.84,0C64.85,42,64.85,22,53.22,10.79Zm-1.48,4.3C60,24.4,60,39.6,51.74,48.91L34.83,32Z"/><path class="cls-2" d="M49.07,55.4a1.94,1.94,0,0,0-.57-1.24L26.34,32,48.5,9.84a2,2,0,0,0,.34-2.35,1.91,1.91,0,0,0-.67-.74A30,30,0,0,0,2,32C1.79,55.43,28.59,70.11,48.17,57.25A2,2,0,0,0,49.07,55.4ZM6,32C5.67,12.94,27-.13,43.82,8.87L22.1,30.59a2,2,0,0,0,0,2.82L43.82,55.13C27,64.13,5.67,51.06,6,32Z"/></g></svg>